<?xml version="1.0" encoding="UTF-8"?>
<svg data-bbox="0.061 0.02 419.811 77.262" xmlns="http://www.w3.org/2000/svg" viewBox="0 0 420 78" height="78" width="420" data-type="color">
    <g>
        <path d="M21.3 6.732v22.413h-3.154V6.732H12.14V3.846h15.166v2.886H21.3zm11.576 20.265c3.288 0 5.1-2.617 5.1-5.704 0-3.053-1.846-5.636-5.1-5.636-3.12 0-4.966 2.717-4.966 5.636 0 2.953 1.778 5.704 4.966 5.704zm7.952-13.555v15.703h-3.02v-2.45h-.067c-1.208 1.779-3.087 2.987-5.335 2.987-4.798 0-7.516-3.993-7.516-8.49 0-4.294 2.852-8.22 7.415-8.22 2.315 0 4.194 1.208 5.436 3.087h.067v-2.617h3.02zM47.974.022v19.325l5.906-5.905h3.992l-6.71 6.51 7.381 9.193h-3.925l-5.604-7.147-1.04 1.04v6.107h-3.02V.02h3.02zm15.971 13.42v15.703h-3.02V13.442h3.02zm-1.51-9.294c1.141 0 2.08.94 2.08 2.114 0 1.14-.939 2.047-2.08 2.047-1.14 0-2.08-.906-2.08-2.047 0-1.174.94-2.114 2.08-2.114zm9.362 9.294v2.114h.067c.94-1.678 2.818-2.584 4.73-2.584 4.43 0 5.57 2.987 5.57 6.812v9.36h-3.02v-8.991c0-2.685-.368-4.496-3.455-4.496-3.892 0-3.892 3.422-3.892 6.274v7.214h-3.02V13.442h3.02zm21.272 13.555c3.288 0 5.1-2.617 5.1-5.704 0-3.053-1.845-5.636-5.1-5.636-3.12 0-4.966 2.717-4.966 5.636 0 2.953 1.779 5.704 4.966 5.704zm7.952-13.555v15.4c0 5.403-1.543 9.295-7.65 9.295-4.362 0-7.516-2.684-7.583-7.113h3.02c0 2.818 1.946 4.429 4.697 4.429 3.725 0 4.496-2.55 4.496-5.771v-2.987h-.067c-1.208 1.779-3.12 2.987-5.335 2.987-4.831 0-7.515-3.993-7.515-8.49 0-4.294 2.852-8.22 7.381-8.22 2.349 0 4.228 1.208 5.47 3.154H98v-2.684h3.02zm25.836 16.24l-7.583-17.246h-.067l-2.953 16.709h-3.255l5.167-26.373 8.69 19.93 8.69-19.93 5.168 26.373h-3.255l-2.952-16.71h-.068l-7.582 17.247zm23.117-2.685c3.288 0 5.1-2.617 5.1-5.704 0-3.053-1.845-5.636-5.1-5.636-3.12 0-4.965 2.717-4.965 5.636 0 2.953 1.778 5.704 4.965 5.704zm7.952-13.555v15.703h-3.02v-2.45h-.067c-1.207 1.779-3.086 2.987-5.334 2.987-4.798 0-7.516-3.993-7.516-8.49 0-4.294 2.852-8.22 7.415-8.22 2.315 0 4.194 1.208 5.435 3.087h.068v-2.617h3.02zm6.946 0v2.114h.067c.94-1.678 2.818-2.584 4.73-2.584 4.43 0 5.57 2.987 5.57 6.812v9.36h-3.02v-8.991c0-2.685-.368-4.496-3.455-4.496-3.892 0-3.892 3.422-3.892 6.274v7.214h-3.02V13.442h3.02zm18.219 0v15.703h-3.02V13.442h3.02zm-1.51-9.294c1.14 0 2.08.94 2.08 2.114 0 1.14-.94 2.047-2.08 2.047-1.14 0-2.08-.906-2.08-2.047 0-1.174.94-2.114 2.08-2.114zm13.924 22.85c3.288 0 5.1-2.618 5.1-5.705 0-3.053-1.845-5.636-5.1-5.636-3.12 0-4.966 2.717-4.966 5.636 0 2.953 1.779 5.704 4.966 5.704zm-4.798-13.556v2.617h.067c1.242-1.879 3.12-3.087 5.47-3.087 4.529 0 7.381 3.926 7.381 8.22 0 4.497-2.684 8.49-7.516 8.49-2.214 0-4.127-1.208-5.335-2.987h-.067v11.442h-3.02V13.442h3.02zm22.648 13.555c3.288 0 5.1-2.617 5.1-5.704 0-3.053-1.845-5.636-5.1-5.636-3.12 0-4.966 2.717-4.966 5.636 0 2.953 1.779 5.704 4.966 5.704zm7.952-13.555v15.703h-3.02v-2.45h-.067c-1.208 1.779-3.086 2.987-5.334 2.987-4.799 0-7.516-3.993-7.516-8.49 0-4.294 2.852-8.22 7.415-8.22 2.315 0 4.194 1.208 5.435 3.087h.067v-2.617h3.02zm7.08-13.42v29.123h-3.02V.02h3.02zm17.447 16.239v12.884h-3.02V16.26h-1.644v-2.819h1.644V7.435h3.02v6.006h2.953v2.819h-2.953zm11.576-3.289c4.697 0 8.388 3.624 8.388 8.355 0 4.73-3.69 8.355-8.388 8.355-4.697 0-8.388-3.624-8.388-8.355 0-4.73 3.69-8.355 8.388-8.355zm0 2.886c-2.986 0-5.369 2.483-5.369 5.469 0 2.953 2.383 5.47 5.369 5.47 2.986 0 5.368-2.517 5.368-5.47 0-2.986-2.382-5.47-5.368-5.47zm24.292.403v12.884h-3.02V16.26h-1.644v-2.819h1.644V7.435h3.02v6.006h2.953v2.819h-2.953zm4.597-16.24h3.02v15.535h.067c.939-1.678 2.818-2.584 4.73-2.584 4.43 0 5.57 2.987 5.57 6.812v9.36h-3.02v-8.991c0-2.685-.369-4.496-3.455-4.496-3.893 0-3.893 3.422-3.893 6.274v7.214h-3.02V.02zm31.338 21.776h-11.978c.033 2.684 1.845 5.2 4.73 5.2 2.316 0 3.557-1.174 4.698-3.053l2.55 1.443c-1.476 2.718-4.228 4.295-7.281 4.295-4.798 0-7.717-3.624-7.717-8.254 0-4.832 2.583-8.456 7.65-8.456 5 0 7.348 3.691 7.348 8.355v.47zm-11.81-2.282h8.79c-.369-2.349-1.912-3.926-4.328-3.926-2.349 0-4.094 1.678-4.463 3.926zm24.895-6.073l4.564 9.999 4.63-10.871 4.596 10.87 4.564-9.998h3.422l-7.986 16.24-4.596-10.502-4.63 10.502-7.986-16.24h3.422zm30.265-.47c4.697 0 8.388 3.624 8.388 8.355 0 4.73-3.69 8.355-8.388 8.355s-8.388-3.624-8.388-8.355c0-4.73 3.69-8.355 8.388-8.355zm0 2.886c-2.986 0-5.369 2.483-5.369 5.469 0 2.953 2.383 5.47 5.369 5.47 2.986 0 5.368-2.517 5.368-5.47 0-2.986-2.382-5.47-5.368-5.47zm14.36-2.416v2.55h.101c.738-1.845 2.282-3.02 4.295-3.02.872 0 1.744.302 2.483.772l-1.376 2.751c-.537-.47-1.14-.637-1.845-.637-3.255 0-3.658 3.02-3.658 5.57v7.717h-3.02V13.442h3.02zm11.71-13.42v29.123h-3.02V.02h3.02zm11.073 26.975c3.288 0 5.1-2.617 5.1-5.704 0-3.053-1.846-5.636-5.1-5.636-3.12 0-4.966 2.717-4.966 5.636 0 2.953 1.778 5.704 4.966 5.704zm4.932 2.148v-2.45h-.067c-1.208 1.779-3.12 2.987-5.335 2.987-4.832 0-7.516-3.993-7.516-8.49 0-4.294 2.852-8.22 7.382-8.22 2.348 0 4.227 1.208 5.469 3.087h.067V.021h3.02v29.124h-3.02zM3.215 45.809v8.388h.805c2.987 0 5.436-.604 5.436-4.227 0-3.557-2.416-4.16-5.369-4.16h-.872zm0 10.905v8.757h2.416c2.919 0 5.972-.872 5.972-4.462 0-3.557-3.623-4.295-6.442-4.295H3.215zM.061 68.289V42.991h3.087c4.764 0 9.26 1.241 9.26 6.945 0 1.846-1.006 3.993-2.717 4.798v.067c2.986.537 5.066 3.456 5.066 6.409 0 5.066-4.328 7.08-8.79 7.08H.061zm21.105-15.702v2.55h.1c.739-1.846 2.282-3.02 4.295-3.02.873 0 1.745.302 2.483.772l-1.376 2.751c-.536-.47-1.14-.637-1.845-.637-3.255 0-3.657 3.02-3.657 5.57v7.716h-3.02V52.587h3.02zm12.247 0v15.702h-3.02V52.587h3.02zm-1.51-9.294c1.14 0 2.08.94 2.08 2.114 0 1.14-.94 2.046-2.08 2.046-1.141 0-2.08-.906-2.08-2.046 0-1.175.939-2.114 2.08-2.114zm9.36 9.294v2.114h.068c.94-1.678 2.818-2.584 4.73-2.584 4.43 0 5.57 2.986 5.57 6.811v9.361h-3.02v-8.992c0-2.684-.368-4.496-3.455-4.496-3.892 0-3.892 3.423-3.892 6.275v7.213h-3.02V52.587h3.02zm21.273 13.555c3.288 0 5.1-2.617 5.1-5.704 0-3.053-1.845-5.637-5.1-5.637-3.12 0-4.966 2.718-4.966 5.637 0 2.953 1.779 5.704 4.966 5.704zm7.952-13.555v15.4c0 5.402-1.543 9.295-7.65 9.295-4.362 0-7.516-2.685-7.583-7.114h3.02c0 2.819 1.946 4.43 4.697 4.43 3.725 0 4.496-2.55 4.496-5.772V65.84h-.067c-1.208 1.778-3.12 2.986-5.335 2.986-4.831 0-7.515-3.992-7.515-8.488 0-4.295 2.852-8.22 7.381-8.22 2.349 0 4.228 1.207 5.47 3.153h.066v-2.684h3.02zm7.617 0v15.702h-3.02V52.587h3.02zm-1.51-9.294c1.14 0 2.08.94 2.08 2.114 0 1.14-.94 2.046-2.08 2.046-1.141 0-2.08-.906-2.08-2.046 0-1.175.939-2.114 2.08-2.114zm9.36 9.294v2.114h.068c.94-1.678 2.818-2.584 4.73-2.584 4.43 0 5.57 2.986 5.57 6.811v9.361h-3.02v-8.992c0-2.684-.368-4.496-3.455-4.496-3.892 0-3.892 3.423-3.892 6.275v7.213h-3.02V52.587h3.02zm21.273 13.555c3.288 0 5.1-2.617 5.1-5.704 0-3.053-1.845-5.637-5.1-5.637-3.12 0-4.966 2.718-4.966 5.637 0 2.953 1.779 5.704 4.966 5.704zm7.952-13.555v15.4c0 5.402-1.543 9.295-7.65 9.295-4.362 0-7.516-2.685-7.583-7.114h3.02c0 2.819 1.946 4.43 4.697 4.43 3.725 0 4.497-2.55 4.497-5.772V65.84h-.068c-1.207 1.778-3.12 2.986-5.334 2.986-4.832 0-7.516-3.992-7.516-8.488 0-4.295 2.852-8.22 7.381-8.22 2.349 0 4.228 1.207 5.47 3.153h.067v-2.684h3.02zm17.079 2.818v12.884h-3.02V55.405h-1.644v-2.818h1.644v-6.006h3.02v6.006h2.952v2.818h-2.952zm4.596-16.24h3.02v15.536h.067c.94-1.678 2.819-2.584 4.731-2.584 4.429 0 5.57 2.986 5.57 6.811v9.361h-3.02v-8.992c0-2.684-.37-4.496-3.456-4.496-3.892 0-3.892 3.423-3.892 6.275v7.213h-3.02V39.166zm31.338 21.776h-11.978c.034 2.685 1.846 5.201 4.731 5.201 2.315 0 3.557-1.174 4.697-3.053l2.55 1.443c-1.476 2.717-4.227 4.294-7.28 4.294-4.799 0-7.718-3.623-7.718-8.254 0-4.831 2.584-8.455 7.65-8.455 5 0 7.348 3.69 7.348 8.355v.47zm-11.81-2.281h8.79c-.368-2.349-1.912-3.926-4.328-3.926-2.348 0-4.093 1.678-4.462 3.926zm24.896-6.073l4.563 9.999 4.63-10.872 4.597 10.872 4.563-10h3.423l-7.986 16.24-4.597-10.502-4.63 10.502-7.985-16.24h3.422zm30.264-.47c4.698 0 8.389 3.624 8.389 8.355 0 4.73-3.691 8.354-8.389 8.354-4.697 0-8.388-3.623-8.388-8.354 0-4.731 3.691-8.355 8.388-8.355zm0 2.886c-2.986 0-5.368 2.483-5.368 5.469 0 2.952 2.382 5.469 5.368 5.469 2.987 0 5.369-2.517 5.369-5.47 0-2.985-2.382-5.468-5.369-5.468zm14.36-2.416v2.55h.102c.738-1.846 2.281-3.02 4.294-3.02.873 0 1.745.302 2.483.772l-1.375 2.751c-.537-.47-1.141-.637-1.846-.637-3.254 0-3.657 3.02-3.657 5.57v7.716h-3.02V52.587h3.02zm11.71-13.421v29.123h-3.019V39.166h3.02zm11.073 26.976c3.288 0 5.1-2.617 5.1-5.704 0-3.053-1.845-5.637-5.1-5.637-3.12 0-4.966 2.718-4.966 5.637 0 2.953 1.779 5.704 4.966 5.704zm4.932 2.147V65.84h-.067c-1.208 1.778-3.12 2.986-5.335 2.986-4.831 0-7.515-3.992-7.515-8.488 0-4.295 2.852-8.22 7.381-8.22 2.349 0 4.228 1.207 5.47 3.086h.066V39.166h3.02v29.123h-3.02zm20.098-12.884v12.884h-3.02V55.405h-1.643v-2.818h1.644v-6.006h3.02v6.006h2.952v2.818h-2.953zm11.576-3.288c4.697 0 8.388 3.624 8.388 8.355 0 4.73-3.69 8.354-8.388 8.354-4.697 0-8.388-3.623-8.388-8.354 0-4.731 3.69-8.355 8.388-8.355zm0 2.886c-2.986 0-5.368 2.483-5.368 5.469 0 2.952 2.382 5.469 5.368 5.469s5.369-2.517 5.369-5.47c0-2.985-2.383-5.468-5.369-5.468zm33.05 13.823l-7.583-17.246h-.068l-2.952 16.71h-3.255l5.167-26.373 8.69 19.93 8.69-19.93 5.168 26.372h-3.255l-2.953-16.709h-.067l-7.583 17.246zm23.117-2.684c3.288 0 5.1-2.617 5.1-5.704 0-3.053-1.845-5.637-5.1-5.637-3.12 0-4.966 2.718-4.966 5.637 0 2.953 1.779 5.704 4.966 5.704zm7.952-13.555v15.702h-3.02V65.84h-.067c-1.208 1.778-3.087 2.986-5.335 2.986-4.798 0-7.515-3.992-7.515-8.488 0-4.295 2.852-8.22 7.415-8.22 2.315 0 4.194 1.207 5.435 3.086h.067v-2.617h3.02zm6.946 0v2.114h.067c.94-1.678 2.818-2.584 4.73-2.584 4.43 0 5.57 2.986 5.57 6.811v9.361h-3.02v-8.992c0-2.684-.368-4.496-3.455-4.496-3.892 0-3.892 3.423-3.892 6.275v7.213h-3.02V52.587h3.02zm18.219 0v15.702h-3.02V52.587h3.02zm-1.51-9.294c1.14 0 2.08.94 2.08 2.114 0 1.14-.94 2.046-2.08 2.046-1.141 0-2.08-.906-2.08-2.046 0-1.175.939-2.114 2.08-2.114zm13.924 22.85c3.288 0 5.1-2.618 5.1-5.705 0-3.053-1.845-5.637-5.1-5.637-3.12 0-4.966 2.718-4.966 5.637 0 2.953 1.779 5.704 4.966 5.704zm-4.798-13.556v2.617h.067c1.242-1.879 3.12-3.087 5.47-3.087 4.529 0 7.38 3.926 7.38 8.22 0 4.497-2.683 8.49-7.515 8.49-2.214 0-4.127-1.209-5.335-2.987h-.067v11.442h-3.02V52.587h3.02zm22.648 13.555c3.288 0 5.1-2.617 5.1-5.704 0-3.053-1.845-5.637-5.1-5.637-3.12 0-4.966 2.718-4.966 5.637 0 2.953 1.779 5.704 4.966 5.704zm7.952-13.555v15.702h-3.02V65.84h-.067c-1.208 1.778-3.087 2.986-5.335 2.986-4.798 0-7.515-3.992-7.515-8.488 0-4.295 2.852-8.22 7.415-8.22 2.315 0 4.194 1.207 5.435 3.086h.067v-2.617h3.02zm7.08-13.421v29.123h-3.02V39.166h3.02z" fill="#FFFFFF" data-color="1"/>
    </g>
</svg>
