<svg xmlns="http://www.w3.org/2000/svg" viewBox="0 0 1742.53 538.53"><defs><style>.cls-1{fill:#fff;}</style></defs><title>big</title><g id="Layer_2" data-name="Layer 2"><g id="Layer_1-2" data-name="Layer 1"><path class="cls-1" d="M389,191.56Q348.83,168,298.27,168T207.2,191.56q-40.51,23.55-63.72,65.79t-23.2,95.57q0,53.34,24.24,95.57t67.52,66.14q43.27,23.89,99.38,23.89,43.63,0,80-15.24T452,479l-27.7-31.86a136.07,136.07,0,0,1-49.17,35.67q-28.41,12.12-62.33,12.12-60.25,0-99.73-35t-43.63-91.76H474.18l.69-15.24q0-54-22.86-95.92T389,191.56ZM169.46,331.46q4.84-54,40.52-87.61t88.3-33.59q53.32,0,89,33.59t40.51,87.61Z"/><path class="cls-1" d="M634.5,228.61Q666,211,705.49,211a135.66,135.66,0,0,1,60.25,13.51Q793.44,238,811.45,265L848.16,240a139.83,139.83,0,0,0-58.52-53.67Q752.58,168,705.49,168q-54,0-96.61,23.55A171.17,171.17,0,0,0,542,257.36q-24.25,42.25-24.24,95.57T542,448.85A170.39,170.39,0,0,0,608.88,515q42.59,23.55,96.61,23.55,46.39,0,83.8-18.35a139.26,139.26,0,0,0,58.87-53.67l-36.71-24.93q-18,27-45.71,40.17T705.49,494.9q-39.48,0-71-17.66a124.6,124.6,0,0,1-49.17-49.86q-17.66-32.2-17.66-74.45,0-41.55,17.66-74.1T634.5,228.61Z"/><path class="cls-1" d="M1656.66,191.56Q1616.48,168,1565.93,168t-91.07,23.55q-40.52,23.55-63.72,65.79t-23.2,95.57q0,53.34,24.24,95.57t67.53,66.14q43.27,23.89,99.38,23.89,43.63,0,80-15.24t60.6-44.33L1692,447.12a136.06,136.06,0,0,1-49.17,35.67q-28.4,12.12-62.33,12.12-60.26,0-99.73-35t-43.63-91.76h304.72l.69-15.24q0-54-22.85-95.92T1656.66,191.56Zm-219.54,139.9q4.84-54,40.52-87.61t88.3-33.59q53.32,0,89,33.59t40.51,87.61Z"/><path class="cls-1" d="M1656.66,191.56Q1616.48,168,1565.93,168t-91.07,23.55q-40.52,23.55-63.72,65.79t-23.2,95.57q0,53.34,24.24,95.57t67.53,66.14q43.27,23.89,99.38,23.89,43.63,0,80-15.24t60.6-44.33L1692,447.12a136.06,136.06,0,0,1-49.17,35.67q-28.4,12.12-62.33,12.12-60.26,0-99.73-35t-43.63-91.76h304.72l.69-15.24q0-54-22.85-95.92T1656.66,191.56Zm-219.54,139.9q4.84-54,40.52-87.61t88.3-33.59q53.32,0,89,33.59t40.51,87.61Z"/><rect class="cls-1" x="19.17" y="170.79" width="49.17" height="364.28"/><path class="cls-1" d="M1101.1,326.21l10.52-120.57h-85.91L1017,163.38h98.34l7.87-87.88H1167c-.51,8.1-.84,16-1.53,24-1.38,15.8-2.95,31.58-4.44,47.37-.52,5.51-.8,11-1.63,16.51-.58,3.79.55,5.37,4.76,6.28,44,9.48,82.52,28.7,114.33,58.5,31.61,29.62,52.37,64.78,58.06,106.63,7.69,56.58-11,105-54.24,145.14-34.39,31.91-76.5,50.06-124.5,56.09-69.66,8.75-132.73-6.62-187.8-47.31-38.87-28.72-64.27-65.79-74.54-111.29-.07-.33.18-.73.37-1.41h45c5.26,11.17,9.59,22.53,15.71,33,20.55,35.1,52.18,58.75,91.69,73.61,32.8,12.33,67,16.52,101.94,11.66,55.57-7.74,100.49-31.6,127.33-79.07,18.11-32,20.13-65.89,7.2-100-16.95-44.73-50.94-74.72-97-93.6-10.05-4.12-20.64-7.12-32.23-11.06l-10.9,122.34h8c25.43,0,50.87.07,76.3-.09,4.45,0,6.42.88,7.18,5.45,2,12,4.83,23.9,7.48,36.53H1140.92c-1.22,13.94-2.43,27.39-3.57,40.85-1.27,15-2.41,30.09-3.84,45.11-.12,1.22-2,3.27-3.05,3.29-13.58.23-27.16.15-41.56.15l8.29-94.52c-9.6-2.86-19.5-5.33-29-8.74C1004.09,337.92,956.4,298.6,933.8,237.6,910.73,175.31,923.54,118,969.85,67.8c27.92-30.26,63.79-49,104.81-59.84a237.07,237.07,0,0,1,79.6-7.23c79.46,6.25,143.22,38.2,186.61,101.73,4.83,7.07,8.61,14.77,12.56,22.32,2.23,4.26,3.81,8.81,6.06,14.12-16.3,0-31.7.08-47.1-.14-1.3,0-3-1.74-3.78-3.05-26.91-48.33-70.37-76.65-126.58-88.38C1127.56,36,1076.16,43.65,1030.2,74c-34.72,23-55.85,54.05-60.33,94.07-4.54,40.59,10.34,75.08,38.51,105.26C1033.16,299.92,1064.58,316.6,1101.1,326.21Z"/><circle class="cls-1" cx="44.5" cy="56.08" r="44.5"/><rect class="cls-1" x="44.5" y="35.8" width="973.02" height="40.6"/></g></g></svg>