<?xml version="1.0" encoding="UTF-8"?>
<svg data-bbox="0.77 0.32 312.78 29.88" xmlns="http://www.w3.org/2000/svg" viewBox="0 0 314 31" height="31" width="314" data-type="color">
    <g>
        <path d="M.77 1.76h13.71v2.7H3.65v6.33h10.08v2.7H3.65v6.81h11.37V23H.77V1.76zm21.54 13.65l-5.04-6.63h3.48l3.45 5.04 3.39-5.04h3.27L26 15.41 31.76 23h-3.48l-4.2-5.97-4.2 5.97h-3.33l5.76-7.59zm21.84-2.85c-.5-.52-1.025-.915-1.575-1.185s-1.205-.405-1.965-.405c-.74 0-1.385.135-1.935.405s-1.01.64-1.38 1.11a4.99 4.99 0 0 0-.84 1.62 6.369 6.369 0 0 0-.285 1.905c0 .66.11 1.285.33 1.875.22.59.53 1.105.93 1.545.4.44.88.785 1.44 1.035.56.25 1.19.375 1.89.375.76 0 1.41-.135 1.95-.405s1.04-.665 1.5-1.185l1.92 1.92c-.7.78-1.515 1.34-2.445 1.68-.93.34-1.915.51-2.955.51-1.1 0-2.105-.18-3.015-.54a6.963 6.963 0 0 1-2.355-1.515 6.696 6.696 0 0 1-1.53-2.34c-.36-.91-.54-1.915-.54-3.015s.18-2.11.54-3.03c.36-.92.865-1.71 1.515-2.37a6.873 6.873 0 0 1 2.34-1.545c.91-.37 1.925-.555 3.045-.555 1.04 0 2.035.185 2.985.555.95.37 1.775.935 2.475 1.695l-2.04 1.86zM48.44.32h2.7v10.65h.06c.34-.76.93-1.375 1.77-1.845s1.81-.705 2.91-.705c.68 0 1.335.105 1.965.315.63.21 1.18.535 1.65.975.47.44.845 1.005 1.125 1.695.28.69.42 1.505.42 2.445V23h-2.7v-8.4c0-.66-.09-1.225-.27-1.695-.18-.47-.42-.85-.72-1.14-.3-.29-.645-.5-1.035-.63a3.817 3.817 0 0 0-1.215-.195c-.56 0-1.08.09-1.56.27-.48.18-.9.465-1.26.855-.36.39-.64.885-.84 1.485-.2.6-.3 1.31-.3 2.13V23h-2.7V.32zm16.74 10.2c.76-.7 1.64-1.225 2.64-1.575 1-.35 2-.525 3-.525 1.04 0 1.935.13 2.685.39s1.365.61 1.845 1.05c.48.44.835.945 1.065 1.515.23.57.345 1.165.345 1.785v7.26c0 .5.01.96.03 1.38.02.42.05.82.09 1.2h-2.4c-.06-.72-.09-1.44-.09-2.16h-.06c-.6.92-1.31 1.57-2.13 1.95-.82.38-1.77.57-2.85.57-.66 0-1.29-.09-1.89-.27-.6-.18-1.125-.45-1.575-.81a3.867 3.867 0 0 1-1.065-1.335c-.26-.53-.39-1.145-.39-1.845 0-.92.205-1.69.615-2.31.41-.62.97-1.125 1.68-1.515.71-.39 1.54-.67 2.49-.84.95-.17 1.965-.255 3.045-.255h1.98v-.6c0-.36-.07-.72-.21-1.08a2.916 2.916 0 0 0-1.68-1.665c-.42-.17-.92-.255-1.5-.255-.52 0-.975.05-1.365.15-.39.1-.745.225-1.065.375-.32.15-.61.325-.87.525s-.51.39-.75.57l-1.62-1.68zm7.62 5.64c-.64 0-1.295.035-1.965.105a7.68 7.68 0 0 0-1.83.405c-.55.2-1 .48-1.35.84-.35.36-.525.82-.525 1.38 0 .82.275 1.41.825 1.77.55.36 1.295.54 2.235.54.74 0 1.37-.125 1.89-.375.52-.25.94-.575 1.26-.975.32-.4.55-.845.69-1.335.14-.49.21-.975.21-1.455v-.9H72.8zm7.89-7.38h2.7v2.19h.06c.34-.76.93-1.375 1.77-1.845s1.81-.705 2.91-.705c.68 0 1.335.105 1.965.315.63.21 1.18.535 1.65.975.47.44.845 1.005 1.125 1.695.28.69.42 1.505.42 2.445V23h-2.7v-8.4c0-.66-.09-1.225-.27-1.695-.18-.47-.42-.85-.72-1.14-.3-.29-.645-.5-1.035-.63a3.817 3.817 0 0 0-1.215-.195c-.56 0-1.08.09-1.56.27-.48.18-.9.465-1.26.855-.36.39-.64.885-.84 1.485-.2.6-.3 1.31-.3 2.13V23h-2.7V8.78zm30.93 14.1c0 1.08-.185 2.065-.555 2.955-.37.89-.895 1.66-1.575 2.31-.68.65-1.5 1.155-2.46 1.515-.96.36-2.02.54-3.18.54-1.36 0-2.605-.19-3.735-.57-1.13-.38-2.205-1.04-3.225-1.98l1.83-2.28c.7.76 1.46 1.335 2.28 1.725.82.39 1.75.585 2.79.585 1 0 1.83-.145 2.49-.435.66-.29 1.185-.665 1.575-1.125.39-.46.665-.985.825-1.575.16-.59.24-1.185.24-1.785v-2.1h-.09a4.75 4.75 0 0 1-2.115 1.905c-.89.41-1.825.615-2.805.615a7.466 7.466 0 0 1-2.895-.555 6.892 6.892 0 0 1-2.295-1.53 6.985 6.985 0 0 1-1.5-2.31 7.648 7.648 0 0 1-.54-2.895c0-1.04.17-2.015.51-2.925a7.15 7.15 0 0 1 1.455-2.385c.63-.68 1.39-1.21 2.28-1.59.89-.38 1.885-.57 2.985-.57.96 0 1.895.21 2.805.63.91.42 1.625 1.01 2.145 1.77h.06V8.78h2.7v14.1zm-7.38-11.94c-.72 0-1.37.125-1.95.375-.58.25-1.07.59-1.47 1.02-.4.43-.71.95-.93 1.56a5.84 5.84 0 0 0-.33 1.995c0 1.44.42 2.595 1.26 3.465.84.87 1.98 1.305 3.42 1.305s2.58-.435 3.42-1.305c.84-.87 1.26-2.025 1.26-3.465 0-.72-.11-1.385-.33-1.995-.22-.61-.53-1.13-.93-1.56-.4-.43-.89-.77-1.47-1.02s-1.23-.375-1.95-.375zm13.5 5.94c0 .62.135 1.185.405 1.695s.625.945 1.065 1.305c.44.36.95.64 1.53.84.58.2 1.18.3 1.8.3.84 0 1.57-.195 2.19-.585.62-.39 1.19-.905 1.71-1.545l2.04 1.56c-1.5 1.94-3.6 2.91-6.3 2.91-1.12 0-2.135-.19-3.045-.57a6.63 6.63 0 0 1-2.31-1.575 6.985 6.985 0 0 1-1.455-2.37 8.377 8.377 0 0 1-.51-2.955c0-1.06.185-2.045.555-2.955.37-.91.88-1.7 1.53-2.37a6.982 6.982 0 0 1 2.325-1.575c.9-.38 1.88-.57 2.94-.57 1.26 0 2.325.22 3.195.66.87.44 1.585 1.015 2.145 1.725.56.71.965 1.51 1.215 2.4.25.89.375 1.795.375 2.715v.96h-11.4zm8.52-2.16c-.02-.6-.115-1.15-.285-1.65a3.63 3.63 0 0 0-.765-1.305c-.34-.37-.765-.66-1.275-.87-.51-.21-1.105-.315-1.785-.315-.66 0-1.265.125-1.815.375a4.421 4.421 0 0 0-2.28 2.31c-.21.49-.315.975-.315 1.455h8.52zm20.16-.78l-8.04-12.18h3.69l5.79 9.33 5.97-9.33h3.51l-8.04 12.18V23h-2.88v-9.06zm11.37 2.94c0 .62.135 1.185.405 1.695s.625.945 1.065 1.305c.44.36.95.64 1.53.84.58.2 1.18.3 1.8.3.84 0 1.57-.195 2.19-.585.62-.39 1.19-.905 1.71-1.545l2.04 1.56c-1.5 1.94-3.6 2.91-6.3 2.91-1.12 0-2.135-.19-3.045-.57a6.63 6.63 0 0 1-2.31-1.575 6.985 6.985 0 0 1-1.455-2.37 8.377 8.377 0 0 1-.51-2.955c0-1.06.185-2.045.555-2.955.37-.91.88-1.7 1.53-2.37a6.982 6.982 0 0 1 2.325-1.575c.9-.38 1.88-.57 2.94-.57 1.26 0 2.325.22 3.195.66.87.44 1.585 1.015 2.145 1.725.56.71.965 1.51 1.215 2.4.25.89.375 1.795.375 2.715v.96h-11.4zm8.52-2.16c-.02-.6-.115-1.15-.285-1.65a3.63 3.63 0 0 0-.765-1.305c-.34-.37-.765-.66-1.275-.87-.51-.21-1.105-.315-1.785-.315-.66 0-1.265.125-1.815.375a4.421 4.421 0 0 0-2.28 2.31c-.21.49-.315.975-.315 1.455h8.52zm6.18-4.2c.76-.7 1.64-1.225 2.64-1.575 1-.35 2-.525 3-.525 1.04 0 1.935.13 2.685.39s1.365.61 1.845 1.05c.48.44.835.945 1.065 1.515.23.57.345 1.165.345 1.785v7.26c0 .5.01.96.03 1.38.02.42.05.82.09 1.2h-2.4c-.06-.72-.09-1.44-.09-2.16h-.06c-.6.92-1.31 1.57-2.13 1.95-.82.38-1.77.57-2.85.57-.66 0-1.29-.09-1.89-.27-.6-.18-1.125-.45-1.575-.81a3.867 3.867 0 0 1-1.065-1.335c-.26-.53-.39-1.145-.39-1.845 0-.92.205-1.69.615-2.31.41-.62.97-1.125 1.68-1.515.71-.39 1.54-.67 2.49-.84.95-.17 1.965-.255 3.045-.255h1.98v-.6c0-.36-.07-.72-.21-1.08a2.916 2.916 0 0 0-1.68-1.665c-.42-.17-.92-.255-1.5-.255-.52 0-.975.05-1.365.15-.39.1-.745.225-1.065.375-.32.15-.61.325-.87.525s-.51.39-.75.57l-1.62-1.68zm7.62 5.64c-.64 0-1.295.035-1.965.105a7.68 7.68 0 0 0-1.83.405c-.55.2-1 .48-1.35.84-.35.36-.525.82-.525 1.38 0 .82.275 1.41.825 1.77.55.36 1.295.54 2.235.54.74 0 1.37-.125 1.89-.375.52-.25.94-.575 1.26-.975.32-.4.55-.845.69-1.335.14-.49.21-.975.21-1.455v-.9h-1.44zM188 8.78h2.7v2.19h.06c.18-.38.42-.725.72-1.035.3-.31.635-.575 1.005-.795a5.31 5.31 0 0 1 1.215-.525c.44-.13.88-.195 1.32-.195.44 0 .84.06 1.2.18l-.12 2.91c-.22-.06-.44-.11-.66-.15-.22-.04-.44-.06-.66-.06-1.32 0-2.33.37-3.03 1.11-.7.74-1.05 1.89-1.05 3.45V23H188V8.78zm18.78 11.16l8.52-8.46c.3-.28.59-.585.87-.915.28-.33.53-.675.75-1.035.22-.36.395-.74.525-1.14.13-.4.195-.82.195-1.26 0-.52-.095-.99-.285-1.41-.19-.42-.45-.775-.78-1.065-.33-.29-.72-.515-1.17-.675-.45-.16-.925-.24-1.425-.24-1.04 0-1.9.29-2.58.87-.68.58-1.11 1.38-1.29 2.4l-3.12-.27c.14-.94.415-1.755.825-2.445a5.92 5.92 0 0 1 1.53-1.725c.61-.46 1.31-.8 2.1-1.02.79-.22 1.645-.33 2.565-.33.92 0 1.785.125 2.595.375.81.25 1.52.62 2.13 1.11.61.49 1.09 1.1 1.44 1.83.35.73.525 1.585.525 2.565 0 .7-.105 1.355-.315 1.965a8.291 8.291 0 0 1-.825 1.725c-.34.54-.73 1.05-1.17 1.53-.44.48-.9.95-1.38 1.41l-6.99 6.75h10.68V23h-13.92v-3.06zm16.32-7.56c0-.78.04-1.59.12-2.43.08-.84.225-1.665.435-2.475s.49-1.585.84-2.325c.35-.74.8-1.385 1.35-1.935s1.2-.99 1.95-1.32c.75-.33 1.625-.495 2.625-.495s1.875.165 2.625.495c.75.33 1.4.77 1.95 1.32s1 1.195 1.35 1.935c.35.74.63 1.515.84 2.325.21.81.355 1.635.435 2.475.08.84.12 1.65.12 2.43 0 1.12-.1 2.32-.3 3.6-.2 1.28-.57 2.47-1.11 3.57a7.54 7.54 0 0 1-2.235 2.73c-.95.72-2.175 1.08-3.675 1.08s-2.725-.36-3.675-1.08a7.54 7.54 0 0 1-2.235-2.73c-.54-1.1-.91-2.29-1.11-3.57-.2-1.28-.3-2.48-.3-3.6zm2.88 0c0 .7.045 1.53.135 2.49.09.96.285 1.885.585 2.775.3.89.745 1.645 1.335 2.265.59.62 1.385.93 2.385.93 1 0 1.795-.31 2.385-.93.59-.62 1.035-1.375 1.335-2.265.3-.89.495-1.815.585-2.775.09-.96.135-1.79.135-2.49 0-.48-.015-1.025-.045-1.635-.03-.61-.1-1.23-.21-1.86-.11-.63-.265-1.24-.465-1.83-.2-.59-.465-1.12-.795-1.59a3.832 3.832 0 0 0-1.215-1.125c-.48-.28-1.05-.42-1.71-.42-.66 0-1.23.14-1.71.42-.48.28-.885.655-1.215 1.125-.33.47-.595 1-.795 1.59-.2.59-.355 1.2-.465 1.83-.11.63-.18 1.25-.21 1.86-.03.61-.045 1.155-.045 1.635zm20.88-7.32l-3.9 3.6-1.68-2.01 5.91-4.89h2.55V23h-2.88V5.06zm20.1-.78H256.7V1.76h13.35v2.46L261.59 23h-3.24l8.61-18.72zM280.55 17h-7.38v-2.52h7.38V17zm9.15-11.94l-3.9 3.6-1.68-2.01 5.91-4.89h2.55V23h-2.88V5.06zm16.92 18.3c-.96 0-1.865-.145-2.715-.435a6.262 6.262 0 0 1-2.205-1.275 6.065 6.065 0 0 1-1.47-2.04c-.36-.8-.54-1.7-.54-2.7 0-.66.105-1.27.315-1.83.21-.56.495-1.065.855-1.515.36-.45.785-.83 1.275-1.14a5.935 5.935 0 0 1 1.605-.705v-.09c-.4-.1-.8-.28-1.2-.54-.4-.26-.755-.59-1.065-.99-.31-.4-.565-.885-.765-1.455-.2-.57-.3-1.225-.3-1.965 0-.8.165-1.525.495-2.175.33-.65.78-1.205 1.35-1.665.57-.46 1.23-.815 1.98-1.065a7.493 7.493 0 0 1 2.385-.375c.84 0 1.635.125 2.385.375.75.25 1.41.605 1.98 1.065.57.46 1.02 1.015 1.35 1.665.33.65.495 1.375.495 2.175 0 .74-.1 1.395-.3 1.965-.2.57-.455 1.055-.765 1.455-.31.4-.665.73-1.065.99-.4.26-.8.44-1.2.54v.09c.58.16 1.115.395 1.605.705.49.31.915.69 1.275 1.14.36.45.645.955.855 1.515.21.56.315 1.17.315 1.83 0 1-.18 1.9-.54 2.7-.36.8-.85 1.48-1.47 2.04s-1.355.985-2.205 1.275c-.85.29-1.755.435-2.715.435zM303.29 7.1c0 .42.075.83.225 1.23.15.4.365.755.645 1.065.28.31.625.565 1.035.765.41.2.885.3 1.425.3.56 0 1.045-.095 1.455-.285.41-.19.755-.44 1.035-.75a3.1 3.1 0 0 0 .63-1.065c.14-.4.21-.82.21-1.26 0-.98-.305-1.785-.915-2.415-.61-.63-1.415-.945-2.415-.945-.92 0-1.705.31-2.355.93-.65.62-.975 1.43-.975 2.43zm3.33 13.74c1.2 0 2.175-.365 2.925-1.095s1.125-1.675 1.125-2.835c0-.64-.105-1.205-.315-1.695-.21-.49-.5-.9-.87-1.23-.37-.33-.8-.58-1.29-.75a4.772 4.772 0 0 0-1.575-.255c-1.18.02-2.15.395-2.91 1.125-.76.73-1.14 1.665-1.14 2.805 0 .62.11 1.175.33 1.665.22.49.515.9.885 1.23.37.33.8.585 1.29.765.49.18 1.005.27 1.545.27z" fill="#FFFFFF" data-color="1"/>
    </g>
</svg>
