<?xml version="1.0" encoding="UTF-8"?>
<svg data-bbox="0 0 469 278" xmlns="http://www.w3.org/2000/svg" viewBox="0 0 469 278" height="278" width="469" data-type="color">
    <g>
        <path d="M384.837 213.023c.637-2.108.89-1.882 2.719-2.694 1.83-.81 1.554-.134 4.06-.952 2.504-.818 3.63.128 5.047-1.253.945-.92 1.86-2.4 2.745-4.44.39-2.023 1.392-3.399 3.004-4.127 2.34-1.057 2.773-.332 5.012-.125 2.24.207 2.4.188 3.775-.514 1.374-.702 1.792-2.438 5.372-3.818s4.175-.37 5.491.812c1.316 1.18-.869 3.36 0 5.401s1.947 3.144 3.781 3.144 2.19-2.076 3.47-4.428c1.282-2.352.555-5.231 1.895-5.421 1.34-.19 2.439 2.332 3.543 4.824s.059 4.627 2.446 8.692 3.578 3 6.27 6.394c2.69 3.395 4.9 3.55 5.478 7.61.578 4.062-2.067 4.444-3.249 8.048-1.182 3.603 1.077 2.856-.502 4.85-1.579 1.995-1.693 5.621-6.957 6.71-3.01.623-5.1-1.072-7.252-1.794-1.612-.541-4.346-.005-6.166-1.044-4.251-2.428-1.215-2.795-4.444-5.202-1.306-.973-1.522-2.55-2.38-3.313-1.262-1.121-1.612-1.529-4.278-1.813-4.477-.478-3.551 1.105-7.98 2.353-4.427 1.247-4.384.336-9.23 1.164-4.846.828-3.87 2.355-6.113 2.317-2.243-.038-2.41-.97-2.41-1.685 0-.716.715-1.925 1.17-3.883.456-1.958.271-2.197 0-3.965-.27-1.767-.058-1.734-1.17-3.665-1.11-1.93-1.891-1.665-2.63-3.585-.739-1.921-1.154-2.49-.517-4.598zm-93.024-9.517c.485-1.362 1.678-1.144 3.07-2.241 1.392-1.097.795-1.318 2.085-2.82 1.289-1.5.362-2.34 1.965-3.437 1.602-1.098 2.515-.332 3.108 1.056.594 1.387.271 2.058 0 4.992-.27 2.933-.265 3.71-1.174 6.68-.91 2.97-1.09 4.294-2.867 6.517-1.778 2.223-2.562 3.035-4.772 3.035-2.209 0-1.786-1.723-1.935-3.423-.149-1.7.52-1.794.52-3.51 0-1.717-.505-1.368-.878-3.009-.373-1.64.392-2.477.878-3.84zm140.931 42.275c.665-.476 1.239 0 2.47 0 1.232 0 2.1-.863 2.72 0 .622.863-.16 2.351-.55 3.962-.39 1.611-.573 2.268-1.87 2.425-1.297.157-.947-.185-2.092-1.303-1.144-1.12-1.458-1.352-1.458-2.756 0-1.403.115-1.852.78-2.328zM37.916 52.934c-.517.008-1.078-.004-1.387-.004-.773 0-.861.143-1.57-.065-.71-.208-.925-.135-1.106-.671-.18-.537.073-.925.172-1.854.1-.93.203-1.262.203-2.522 0-1.261.12-1.116-.203-2.127-.322-1.01-.161-1.215-.97-1.546-.809-.33-1.565-.345-2.811 0s-1.318.363-1.962 1.096c-.644.732-.687 1.092-.928 2.194-.242 1.1.22 1.712-.316 3.361-.537 1.65-.3 1.6-1.497 2.208-1.197.608-1.646.607-3.26.607-1.614 0-1.11-.442-2.273-.607-1.163-.166-1.016-.03-1.955-.22-.94-.19-1.087-.118-2.051-.59-.964-.472-.874-.912-2-1.16-1.125-.248-1.906-.501-3.261 0-1.355.502-1.318.85-2.06 1.97s-.391 1.453-1.097 2.794c-.705 1.341-.915 2.012-1.898 2.899-.983.887-1.42.973-2.67.887-1.249-.086-1.474-.413-1.916-1.203-.443-.79.012-1.285.48-2.08.467-.793.692-.692 1.682-1.593.99-.902 1.629-1.137 2.805-2.514 1.177-1.378 1.112-1.513 1.152-2.132.04-.62.082-1.378-.226-2.244-.308-.867-.637-1.24-1.713-2.127-1.076-.886-1.817-.674-3.047-1.793-1.23-1.12-1.511-1.256-1.923-2.732-.411-1.477-.484-1.893.22-3.384.703-1.492.954-1.54 2.486-2.35 1.533-.812 2.082-.363 3.977-1.074 1.895-.711 2.525-.579 4.045-1.938s1.606-1.671 2.124-3.577-.33-2.987.486-5.513c.816-2.525 1.562-2.11 2.43-2.258.868-.148 1.772-.08 3.93.155 2.158.235 2.793 1.22 5.202 1.043 2.409-.176 2.046-.452 2.645-1.475.599-1.024.285-1.503-.3-2.534-.584-1.03-1.706-1.247-2.975-2.937-1.268-1.69-1.182-1.841-.805-2.758.378-.917 1.098-1.031 2.658-1.415 1.56-.383 3.074-.356 6.54-.356 3.467 0 2.338.165 4.312.532 1.973.366 2.043.07 4.053.842s2.242 1.367 4.708 2.331c2.465.964 2.199.628 4.407 1.234 2.208.605 1.628.228 3.045.81 1.417.58 1.49.599 2.601 1.507l.065.053c.204-.01.358.214 1.275.55 1.141.42 1.179.658 2.268.864 1.09.206 1.02.117 3.034.164 2.015.047 2.028 0 4.034 0 2.005 0 2.342-.401 4.01 0 1.67.402 2.41 1.396 2.99 1.684.581.287.123.29 1.266.424 1.142.134.941-.058 2.352 0 1.41.058 1.35-.198 2.816.212 1.466.41 1.11.14 2.716 1.336 1.606 1.196 1.907 1.875 2.797 2.769.89.894 1.216 1.393 1.755 1.803.54.41.364.364 1.351.558.988.194.656.041 2.071.115 1.415.073 1.436.071 2.83.14 1.396.068 3.386.922 4.185 1.64.8.717.988 1.037 1.43 1.555.44.517.26.3.808 1.074s.664.947 1.059 1.565c.395.619.233.67.744 1.257.51.587.866.8 1.255 1.045.39.244 1.407.497 2.174 0 .767-.497.701-.781 1.26-1.306.559-.524.727-.677 1.194-.996.466-.318.373-.41 1.042-.53.669-.122.896-.067 1.44.08.544.148 1.024 1.037.87 1.545-.152.51-.005.253-.498.982-.494.728-1.31 1.575-1.447 2.261-.137.686-.161.82-.12 1.395.043.575-.033-.038.305 1.138.339 1.175.966 3.068.89 4.255-.076 1.186-1.13 3.525-1.746 4.3-.616.774-1.995 1.719-3.1 2.49-1.106.77-2.66 1.872-3.217 2.706-.557.833-.576.893-.834 1.793-.258.9-.174 2.645-.386 3.33-.212.686-1.506 1.905-2.443 3.336-.936 1.432-1.78 3.965-1.548 5.184.232 1.219.224 1.318.868 2.392.644 1.074.457.96 1.748 1.97 1.29 1.01 1.457 1.15 2.964 1.715 1.508.564 2.114.402 3.202.787 1.09.385 1.24.23 2.01 1.054.77.823.855.902 1.042 1.95.187 1.05-.336 1.367-.567 2.217-.231.85-.51.814-.673 1.495-.164.68-.21.967.198 1.522.408.554 1.014.602 1.592.755.579.153 2.338-.64 2.923-1.202.585-.562.513-.438.927-1.28.414-.843.205-.762.727-1.692.522-.93.477-1.175 1.242-1.814.765-.64 1.271-.601 1.88-1.004.61-.404 1.067-1.412 1.067-2.788 0-1.377-.048-1.874 0-2.753.047-.88-.141-1.345.223-1.965.365-.62 2.664-.675 3.382-1.13.718-.455.764-.353.884-1.464.121-1.11-.376-1.489-.474-2.304-.098-.816-.201-.908 0-1.645.2-.736 1.046-1.873 1.99-2.119.946-.246 1.162-.143 2.07-.12.907.024 1.121.032 1.807.22.685.189.41.09 1.257.623s.464.137 1.593 1.173c1.13 1.036 1.544 1.655 2.085 2.2.54.543.312.536 1.023 1.23.71.694.721.8 1.5 1.233.777.433 1.022.323 1.923.425.901.101 1.28-.026 1.837 0 .556.026 1.476-.112 1.771.912.295 1.024.18 1.716.18 2.163 0 .448.101.033-.18.889-.28.856-.407 1.11-.667 1.692-.26.582-.296.436-.598 1.142s-.56 3.715.2 4.884c.76 1.17 1.057 1.623 1.535 2.332.478.71.5.688.984 1.407.483.719.603.731.937 1.45.333.719.306.397.434 1.506.129 1.108.097 1.343 0 2.24-.097.897-.66 2.685-1.52 3.411-.862.726-1.107.932-2.178 1.115-1.071.184-1.654-.13-2.316-.345-.663-.215-.336-.107-1.121-.77-.785-.663-.382-.514-1.462-1.412-1.08-.899-1.421-1.21-2.282-1.704s-1.12-.604-1.946-.722c-.826-.118-1.12-.033-1.732.198-.612.231-1.338 1.644-1.257 2.228.08.584.04.716.615 1.12.574.403.707.038 1.584.424.877.386 1.06.339 1.615.983.554.644.392.858.588 1.577.196.718-.115 1.772.24 2.365.355.593 1.042 1.038 1.166 1.047.124.009 1.322 1.152 1.65 1.802.327.65-.36 2.051-1.381 2.394-1.022.343-1.266.23-2.263.3-.58.041-1.373-.113-2.048-.403-.18-.06-.397-.166-.64-.136-.677.08-.745-.373-1.547-.672-.802-.298-1.058-.65-2.21-.726-1.153-.075-1.492.014-2.722.404s-1.08.373-1.683.993c-.603.621-.483 1.047-1.223 1.997-.74.95-.758 1.262-2.02 2.17-1.262.909-1.288.792-2.768 1.278-1.481.487-1.29.216-2.561.474-1.272.259-1.482-.045-2.243.501-.76.547-1.074 1.08-1.614 2.271-.54 1.192-.292 1.039-.36 2.087-.068 1.048.381 1.762 0 3.452s-.487 2.117-1.881 4.301c-1.394 2.184-3.45 1.822-4.416 2.275-.966.452-1.746.906-2.916 2.082-1.17 1.175-.706.502-1.05 1.618-.342 1.117-.361 1.567-.244 2.593.117 1.026.14 1.314.531 2.587.391 1.272.402.809.763 1.626.36.818.816.965.816 1.948 0 .396.003 1.17-.437 1.92-.65 1.109-1.884 2.19-2.385 2.134-.838-.093-.928-.9-1.407-1.91-.479-1.012-.561-1.325-.764-2.675-.202-1.35.192-1.221 0-2.412-.191-1.19-.096-1.293-.776-2.417-.68-1.125-.859-1.362-2.156-2.431-1.297-1.07-3.36-.938-4.252-.434-.892.503-.912.836-1.703 1.725-.791.888-1.435 1.914-2.353 2.078-.918.163-1.882 0-3.764 0s-1.658-.201-3.216 0c-1.557.2-1.805.273-3.353.847-1.549.575-2.01 1.444-2.261 2.001-.218.482.105 1.414-.48 2.136 0 .085.007.179.025.283.133.769.302 1.205.685 2.385.384 1.18.275 1.747 1.11 3.136.835 1.388.751.973 1.629 1.777.877.803.846.741 1.756 1.322.91.58 1.293.274 1.897.312.605.037 1.353-.415 3.131 0 1.778.414.763.712 1.624 1.274.861.563.7.434 1.456.739.754.304.842.247 1.675.524.832.277 1.058.046 1.641.58.584.536.495.716.627 1.501.132.786 0 1.117 0 2.234s-.312 1.07 0 1.912c.312.843.774.625 1.234 1.425.461.8.462.872.622 1.794.02.119.008.259-.03.411.116.452.54 1.087 1.146 1.437.704.407.972.055 1.94.163.97.109 1.466.297 2.937.383 1.47.086 1.823.187 3.63 0 1.806-.187 1.858-.114 3.634-.751 1.777-.637 1.692-1.278 3.486-1.803 1.794-.526 2.27-.546 4.537-.546s1.822.057 3.588.546c1.767.489 1.302.591 2.606 1.168 1.304.577 1.64.487 3.169 1.386 1.53.899 1.221.902 2.4 1.379 1.18.476 1.774.715 3.75 1.103 1.977.388 1.728.354 3.453.737 1.725.383 1.447.095 2.802.653s1.088.26 1.765 1.229c.676.97.445 1.888 1.294 3.157.85 1.27 1.036 1.073 2.135 1.972 1.099.9 1.8.838 3.296 2.733 1.495 1.896 1.053 2.147 2.016 4.001.963 1.854.611 1.165 1.396 1.956.785.79 1.179 1.319 2.5 1.967 1.32.649.766.935 2.113 1.091 1.347.156 1.41-.145 2.558 0s2.015.046 3.728.207c1.712.16 5.691.197 6.765 1.393 1.074 1.195 1.797 1.303 1.983 3.588.186 2.284.307 3.928-.195 5.9-.502 1.972-.691 2.431-1.362 3.63-.672 1.199-.938 1.134-1.95 2.08-1.014.948-1.338.61-2.284 1.876-.946 1.266-.718.689-1.14 2.288-.422 1.599-.195 1.725-.195 2.77 0 1.046-.206 1.416-.206 3.301 0 1.885.535 1.917.206 2.977-.33 1.061-.626 1.731-1.622 2.709-.997.977-2.225 1.875-4.555 3.348-2.33 1.472-1.053.712-2.518 1.666-1.464.953-1.413.154-2.257 1.77-.845 1.617-.866 1.825-1.01 3.25-.144 1.425-.452 1.335-1.064 2.226-.613.891-.975 1.958-2.589 3.091-1.613 1.134-1.889.133-2.751 1.39-.863 1.256.176 1.357 0 2.62-.176 1.262-.319 1.494-.863 3.192-.544 1.698-1.042 1.586-1.862 2.671-.82 1.085-.634 1.87-2.028 2.85-1.394.98-1.782.632-4.106 2.708-2.325 2.075-1.562 2.018-1.908 3.458-.346 1.44-.149 1.22-.431 2.58-.282 1.358-.315 1.24-1.114 1.884-.799.643-1.888.492-2.98 1.897-1.093 1.406-1.353 2.047-.978 3.436.375 1.389 1.732 1.85 2.643 4.371.912 2.52.977 2.282 1.315 4.76.338 2.477.205 2.187.205 4.628 0 2.441.155 2.193.15 2.815-.005.622-.617 2.872-1.67 2.675-1.052-.197-2.22-1.27-3.867-2.927-1.648-1.657-2.096-3.082-3.135-4.497-1.04-1.416-1.472-1.591-2.502-3.68-1.03-2.087-1.084-2.079-1.49-4.407-.404-2.329.157-2.103 0-4.151-.155-2.048-.626-3.22-.626-4.08 0-.861.403-1.628 0-2.725-.404-1.096-1.448-1.172-2.105-2.991-.657-1.82-.473-3.852-.473-4.144 0-.292.527-1.486 1.024-2.993.497-1.508.987-4.852.866-6.493-.122-1.64-.133-2.052-.384-4.069s-.058-2.202-.482-4.213c-.424-2.012-.554-1.43-1.024-2.923s-1.52-5.983-1.394-7.15c.126-1.168.61-1.635.61-3.27 0-1.637.11-2.366-.61-3.29-.72-.926-2.342-.636-3.337-1.115-.996-.479-2.048-.445-3.109-1.812-1.06-1.366-.93-1.39-1.43-2.597-.498-1.208-2.144-2.572-2.803-2.97-.66-.4-.984-.57-1.845-1.41-.861-.841-.707-.49-.93-1.3-.222-.81.207-4.468-.44-6.11-.646-1.642-1.082-1.487-2.248-2.803-1.167-1.315-1.38-1.222-2.628-2.697-1.247-1.476-2.043-3.744-1.779-4.634.265-.89.57-.808 1.12-1.645.55-.837.707-.799 1.035-1.967.328-1.169-.106-1.489.221-2.512s.659-.873 1.344-1.695c.685-.823.667-1.174 1.527-1.75.86-.576 1.54-.51 2.778-1.436 1.236-.926.89-2.788.668-3.984-.222-1.196-.022-1.45-.668-2.017s-.471-.678-1.491-.779c-1.02-.1-.99.106-2.127.106-1.138 0-1.75.692-2.628.248-.878-.445-.972-.81-1.779-1.882-.807-1.072-.518-.818-.945-1.454-.412-.614-.715-.706-1.165-1.655a.988.988 0 0 1-.055-.03c-1.192-.696-.608-.867-1.296-1.667-.688-.801-.76-.98-1.675-1.791-.917-.811-1.124-.978-2.365-1.785-1.24-.806-1.51-1.129-3.207-1.836-1.696-.707-2.065-.707-4.174-1.24-2.11-.534-1.484-.541-3.255-.896-1.771-.354-1.888-.069-3.863-.624-1.976-.555-1.49-.335-2.518-1.068-1.027-.733-1.003-.929-1.646-1.707s-.96-.993-1.965-2.155c-1.005-1.163-.712-.692-1.285-1.484s-.968-1.043-1.428-2.266c-.46-1.224-.25-1.238-.358-2.485-.108-1.248-.026-1.584-.187-2.385-.16-.8-.002-.92-.74-2.24-.74-1.319-.77-.98-1.423-1.773-.653-.794-1.116-.609-1.491-1.769s-.235-1.1-.391-2.157c-.156-1.057-.054-1.15-.272-2.344-.218-1.193.096-1.576-.306-2.958-.222-.763-.839-1.33-1.435-1.356-.485-.022-.954.397-1.211.676-.575.621-.749 1.061-.96 2.147-.213 1.085-.146 1.988-.146 3.835s-.101 1.636.313 3.128c.413 1.492.603 1.302 1.267 2.571.665 1.27.565 2.698 0 2.976-.564.277-.806-.233-1.267-.736-.462-.502-.64-2.068-1.236-2.984-.597-.916-.793-.907-1.567-1.827-.775-.92-1.053-1.276-1.135-2.105-.082-.83-.065-1.453 0-2.394.065-.94.25-1.575.348-3.158.098-1.583 0-1.219 0-2.438s.092-1.157 0-2.298c-.07-.864-.394-1.393-.325-1.79a2.99 2.99 0 0 1-.028-.07c-.509-1.3-.88-1.808-1.323-2.82-.445-1.011-.652-1.786-1.48-3.53-.827-1.744-.815-1.37-1.51-2.772-.696-1.4-.781-1.513-1.388-3.06-.606-1.548-1.153-4.567-.933-6.25.221-1.68.273-1.896.933-3.72.66-1.822 2.065-4.387 2.543-6.366.478-1.98.45-2.119.73-4.248.167-1.272.096-2.867.328-4.302-.144-.436.052-.98-.068-1.873-.186-1.383 0-1.244 0-2.8 0-1.554.14-1.9 0-3.109-.14-1.21-.124-1.418-.637-2.388s-.624-.628-1.555-1.754c-.93-1.127-1.046-.908-1.788-2.292s-.88-2.315-.832-2.933c.047-.617 0-.842.272-2.227.273-1.385.406-1.407.56-2.927.155-1.52.004-1.987-.38-3.082-.374-1.067-1.209-1.276-1.162-2.245zm375.335 88.034c.612-1.509 1.458-2.925 2.849-2.925 1.39 0 2.18.659 2.294 2.67.114 2.01-.378 2.675.382 3.989.76 1.313 2.05.985 3.6 2.687 1.548 1.701 1.698 1.82 1.698 3.135 0 1.316-.79 1.23-1.699 1.23s-1.939-.234-3.6-1.23c-1.66-.995-1.39-1.18-2.675-2.534-1.285-1.353-1.48-1.269-2.293-3.27-.812-2.003-1.169-2.243-.556-3.752zm14.749 28.7c.88-1.2 1.88-1.035 2.922-.609 1.044.427 1.099 1.141 2.524 1.952 1.424.81 1.009.899 2.628.98 1.62.082 1.826-.293 3.504 0 1.678.294 3.362.377 5.74 1.615 2.377 1.239 2.564 3.986 3.259 5.76.694 1.773.139 2.193 1.41 3.518 1.27 1.325 2.959.996 4.786 2.56 1.827 1.565-.425 3.846-1.852 3.846-1.428 0-1.93-.812-3.868-1.612s-1.722-1.318-3.736-1.527c-2.013-.21-2.977.752-5.739.54-2.762-.21-2.1-.604-2.903-1.663-.803-1.06-1.123-1.744-1.322-3.415-.198-1.672.731-1.022 0-2.248-.73-1.226-.874-.905-1.907-1.702-1.034-.796-1.696-.967-3.073-2.135-1.377-1.169-1.812-1.098-2.373-2.485-.562-1.387-.88-2.175 0-3.375zm-57.317.38c-2.231-2.29 1.756-2.046 3.134-1.53 1.38.514 1.731 1.217 3.444 2.456 1.714 1.238 2.07 1.918 4.522 3.826 2.451 1.909 2.05 1.6 3.517 3.643 1.468 2.042 2.439 2.078 2.126 3.983-.313 1.906-.75 2.058-2.126 2.058-1.374 0-2.23-.636-3.517-2.058-1.288-1.421-.917-2.324-2.306-4.373-1.389-2.049-1.403-2.164-3.291-3.883-1.889-1.72-3.272-1.83-5.503-4.121zm55.766-8.977c.561-.446.193-.299 1.212-.773 1.02-.475 1.32-.78 2.122-.78.802 0 1.078.24 1.562.78.485.54.364.74.485 1.5.12.76.207.683 0 1.558s-.065.843-.765 1.672c-.7.83-.794 1.014-1.783 1.35-.99.334-1.263.33-2.203 0-.94-.331-1.213-.792-1.634-1.35-.422-.557-.338-.79-.438-1.39-.1-.601-.443-.444 0-1.233.444-.79.881-.889 1.442-1.334zm-1.053-70.65c0-1.432.371-2 1.39-2.474 1.02-.475 3.333 4.07 2.705 6.432-.628 2.361-1.148 2.531-2.088 2.2-.94-.33-1.59-1.148-2.007-2.594-.418-1.446 0-2.132 0-3.564zm-16.225 71.186c1.224-.95 2.38.147 3.392 1.603 1.011 1.455 1.158 2.287.776 3.204-.381.918-2.094-.116-2.553.648-.46.764 0 1.432 0 2.865 0 1.432.147 2.3-.509 4.425-.655 2.125-.548 2.85-1.823 3.133-1.276.282-1.487-.814-2.709-1.538-1.222-.723-1.693-.724-3.018-1.118-1.325-.394-2.115-.091-4.028-.713-1.913-.623-1.53-.63-2.292-1.778-.762-1.149-.46-2.162.307-3.163.767-1 1.484-.54 3.01-.715 1.528-.175 1.853.545 3.239 0s1.163-.896 1.964-2.046c.8-1.15.475-1.45 1.312-2.656.836-1.205 1.708-1.2 2.932-2.15zM390.16 185.24c.965-.66.672-.41 1.713-.54 1.041-.13 1.514-.175 2.605 0 1.09.175 1.82.455 3.446.97 1.626.515 1.334.537 2.84 1.021 1.507.484 2.418.355 3.236.932.817.577.884.854 0 1.35-.885.496-1.752.535-3.235.463-1.484-.072-1.267-.46-2.841-.758-1.574-.299-1.647-.342-3.446-.435-1.8-.094-3.545.386-4.918 0-1.374-.386-.754-.785-.6-1.552.153-.766.235-.791 1.2-1.45zM220.597 80.644c.347-1.479 1.167-1.023 1.826-2.277.659-1.253.179-.971.427-2.009.248-1.037.253-1.073 0-1.832-.253-.758-.661-1.894-1.646-3.106-.985-1.213-1.215-.896-2.188-2.705-.972-1.808-.732-2.274-.262-3.293.47-1.02.568-1.065 1.843-1.732 1.275-.668 1.884-1.328 3.602-.93 1.718.397 1.75.767 2.882 2.43 1.132 1.665.126 1.752.25 3.116.125 1.365-.003 1.52.317 3.114.32 1.593.474 1.26 1.147 2.12.673.859 2.005.918 2.294 2.27.29 1.353-1.571 1.587-1.294 2.402.277.814 1.83.211 2.652 1.593.822 1.382.554 2.034 0 2.867-.553.832-1.733 1.9-3.652 2.624-1.919.725-3.098 1.429-5.945.997-.096-.014.364.014.277 0-2.492-.405-1.92-.71-2.53-2.24-.631-1.584-.347-1.93 0-3.41zm-8.107-5.712c1.058-.638 3.175.021 4.149.476.973.454 1.24.84 1.516 1.659.276.818.028.97-.247 2.109-.275 1.138-.305 1.205-1.053 1.947s-.842.738-1.793.876c-.952.138-1.467.26-2.572-.242-1.104-.502-1.103-.72-1.642-1.672-.54-.951-.299-2.13 0-2.844.298-.714.585-1.672 1.642-2.31zm-84.952-45.424c1.314-1.891 1.016-2.01 2.574-2.73 1.56-.721 1.674.12 3.332 0 1.658-.121 2.073-.953 3.883-.525 1.81.428 2.178 1.165 4.283 2.454 2.105 1.29 3.21 2.185 6.534 4.17 3.324 1.984 3.249 1.556 6.264 3.47 3.015 1.913 2.485 4.42 2.904 6.296.418 1.876.467 1.956 1.628 3.348 1.16 1.392 2.483 1.089 3.662 2.995 1.18 1.906 1.646 2.643.964 4.484-.683 1.841-2.767 1.252-3.85 3.297-1.082 2.045 0 1.988 0 3.976s-1.326 4.724-2.94 4.57c-1.613-.154-2.386-1.085-4.152-2.25-1.766-1.166-1.152-1.492-2.691-2.32-1.539-.829-1.822-.822-4.707-1.973-2.886-1.151-3.641-.144-5.104-1.434s-.02-2.609.617-3.112c.636-.503 1.517.304 3.401-.754 1.884-1.057 3.112-1.337 4.004-3.244.892-1.908-.14-1.812-1.173-2.811-1.032-.999-2.764-.745-4.131-2.324-1.367-1.58-.24-1.264 0-2.448s1.825-2.377 1.3-3.949c-.525-1.572-1.547-2.347-3.401-2.347-1.855 0-3.322 2.347-6.687 2.347s-4.42-.489-7.605-2.347c-3.185-1.86-.224-4.948 1.09-6.839zm27.885-13.516c1.32-.893 1.65-.152 3.265-.517 1.614-.365 2.202-.02 3.91-1.107 1.71-1.087 1.918-1.62 3.488-3.598 1.569-1.978.742-2.4 2.276-3.664 1.534-1.265 2.49-2.185 5.213-2.51 2.722-.326 3.777.722 7.578.98 3.8.257 2.734 1.117 5.806 0 3.072-1.118 3.488-2.563 5.708-3.911C194.887.317 194.541 0 197.214 0c2.674 0 3.567.123 6.537 1.665 2.97 1.541 1.837 2.632 4.205 3.91 2.368 1.28 2.543-.065 4.715.907 2.172.972 1.445 2.042 3.345 2.7 1.9.66 4.25-.757 6.977.878 2.725 1.635 2.544 2.777 1.666 4.308-.878 1.531-5.47 2.697-7.904 5.96-2.434 3.264-1.223 2.611-1.512 6.666-.289 4.056 1.813 3.855 1.512 7.37-.302 3.515-.945 2.99-2.601 5.332-1.656 2.342-3.354 1.798-4.416 4.592-1.062 2.794 1.146 3.033.54 5.607-.606 2.575-.844 4.253-3.273 6.004-2.43 1.75-4.698.205-8.41 2.416-3.71 2.21-2.092 3.166-4.763 5.432-2.672 2.266-4.103.705-5.8 3.528-1.696 2.823-.54 4.751-1.837 9.182-1.298 4.43-.536 4.038-2.387 5.24-1.852 1.202-2.867.757-4.749-.61-1.881-1.366-3.336-2.62-4.541-6.137-1.206-3.518.254-3.582 0-7.111-.254-3.53-3.374-2.899-2.854-5.717.52-2.817 3.987-3.727 5.292-7.486 1.304-3.758 1.242-2.533.766-4.74-.477-2.208-2.408-3.035-3.204-6.551-.797-3.517 1.19-4.324 0-7.594-1.19-3.27-2.081-4.025-5.119-6.474-3.037-2.45-3.413-1.533-6.8-3.137-3.388-1.603-3.274-.858-5.842-2.848-2.569-1.99-2.93-2.068-3.33-4.26-.401-2.191.676-2.148 1.996-3.04zm-21.55-14.474c1.822-1.153 2.251-.951 3.396-.764 1.144.187 1.2.594 2.39 1.198 1.19.604 1.939.381 2.583 1.327.645.945.789 1.66.49 3.178-.298 1.52-.31 1.844-1.437 2.475-1.126.63-1.316-.091-2.118-.483-.803-.391-.685-1.009-1.79-1.2-1.104-.19-1.645.479-3.154.348-1.51-.131-2.115-.055-2.703-.876-.588-.82-.281-1.518.275-2.512.556-.993.244-1.538 2.067-2.691zM110.97 13.294c.57-1.208 1.654-.75 2.564-.87.909-.12 1.196.062 2.162-.267.966-.33 1.154-.542 2.154-1.205 1.001-.663.54-.794 1.414-1.16.875-.367 1.16-.433 2.161-.337 1.001.096.96.195 1.189.659.228.463.416.972 0 1.752-.417.78-.997 1.177-2.146 2.267-1.149 1.09-1.145.629-1.902 1.724-.756 1.095-.237.962-.418 1.634-.18.672-.045 1.177-.824 1.683-.778.506-1.115.356-2.073.2-.958-.157-.878-.585-1.717-.585-.84 0-.635.368-1.484.584-.848.217-1.756.542-2.813.278-1.057-.263-.554-.575-.459-1.095.096-.519.552-.494.857-1.065.305-.571.324-.812.586-1.634.261-.823.18-1.355.749-2.563zm348.49 219.77c1.495-.242 1.65.39 2.024 1.35.375.958-.017 1.361-.579 2.349-.563.987-.78 1.056-1.763 1.763-.983.708-1.62.121-2.136 1.043-.516.922.09 1.483-.223 2.77-.313 1.289-.072 1.734-.993 2.231-.922.497-1.702.585-2.922 0-1.22-.585-1.225-.967-1.732-2.23-.507-1.264-.393-1.419 0-1.944.393-.526.603-.472 1.195-.827.591-.355 1.469-.47 2.467-1.51s.903-1.557 1.985-2.717c1.082-1.159 1.182-2.034 2.677-2.277zm1.476-5.666c-.114-.955.568-1.214 1.106-1.752.537-.539.643-.808 1.465-.997.822-.188 1.373-.647 2.684-.15 1.312.498 1.935.666 2.557 2.075.599 1.358-.055 4.752-.07 4.814-.411 1.734-2.305 2.448-3.095 1.997-.789-.451-.766-1.043-1.084-1.557-.319-.514-.59-.707-1.628-1.444-1.038-.738-1.157-.403-1.643-1.082s-.179-.949-.292-1.904zm-222.09-109.613c1.629 1.04 2.359 4.1 3.347 5.347.989 1.247.278 1.3 2.51 2.28 2.23.98 1.677.692 4.756 1.023.079.009 3.772.09 6.082-.16 2.371-.257 2.24-1.05 3.977-1.812 1.737-.763 1.713-.947 4.137-1.174 2.424-.228 3.693.46 5.043.986 1.35.525 1.626.938 2.791 2.499 1.166 1.56.86 1.972 2.071 4.229 1.211 2.257 1.352 1.711 2.086 3.185.734 1.474.392 2.154 1.27 3.575.878 1.42 1.096.987 2.001 1.901.905.915.861.364 1.764 1.719s.804 2.158 1.09 3.424c.286 1.267-.379 3.587.387 4.737.765 1.15 1.41.976 2.574 1.543 1.163.568 3.225.304 3.706 1.816.481 1.512.093 3.024.534 4.229.251.685.97 1.607 1.772 2.058.841.474 3.198.09 4.74-.174 1.542-.265 1.696-.626 3.022-.867 1.325-.241 1.95.462 2.48.62.528.157 1.41 1.578 1.62 2.633.21 1.055.409 1.38-.79 3.196-1.2 1.816-1.211 1.359-3.052 2.524-1.841 1.166-2.815 1.349-3.53 2.16-.716.813-.557.8-1.186 2.648-.63 1.85-.829 4.06-1.82 5.365-1.016 1.34-2.034 2.507-3.444 3.382-1.41.874-1.766.496-2.927 1.508s-1.621 1.253-1.896 2.695c-.274 1.443.6 3.601 1.372 5.436.772 1.835 1.543 2.106 1.81 3.511.267 1.406.712 1.653.304 4.134-.409 2.48-1.912 4.443-3.486 6.07-1.574 1.626-2.663 2.004-3.742 4.07-1.078 2.064-.752 1.456-1.302 4.335-.55 2.88-.682 4.057-1.116 5.918-.435 1.86-.703 1.922-1.6 3.462-.898 1.54-1.503 1.383-2.338 2.534-.835 1.15-.8.673-1.5 3.069-.699 2.396-.533 2.908-.705 5.025-.171 2.117-.006 2.615-.61 3.985-.606 1.37-.578 2.328-2.914 3.63-2.337 1.303-2.506.895-4.774 1.468-2.269.573-3.321-.19-4.72-.76-1.4-.57-1.595-1.823-2.547-3.548-.952-1.724-.252-4.3-1.54-6.572-1.287-2.271-.32-1.804-1.327-3.991-1.006-2.187-2.321-2.724-2.848-5.191-.527-2.467.053-2.694-.398-4.908a68.564 68.564 0 0 0-1.264-4.993c-1.106-2.113-1.583-1.846-3.114-4.026-1.53-2.181-2.331-2.019-3.273-4.04-.941-2.021-.858-5.55 0-9.67.859-4.121.737-5.808 1.27-8.27.533-2.464.042-4.547-.22-5.818-.262-1.272-1.19-1.237-3.161-2.655-1.971-1.418-4.438-.925-5.444-1.907-1.006-.982-1.168-2.205-1.908-4.642-.74-2.438-.862-3.12-1.808-3.954-.946-.833-2.814-.893-4.426-.419-.056.017-2.586 1.519-2.639 1.541-1.953.828-1.921 2.051-4.43 2.832-2.509.78-5.86 1.477-8.183.718-2.323-.759-2.837-.654-4.411-2.448-1.574-1.794-1.744-3.477-2.177-5.062-.433-1.584 0-1.848 0-3.436 0-1.588.487-2 .487-3.176 0-1.177.649-1.437-.786-4.452-1.434-3.014-4.058-3.123-5.027-5.2-.97-2.076-.961-2.106-1.344-5.22-.383-3.116.063-3.52.612-5.946.549-2.425.302-2.931 2.44-5.134 2.14-2.203 2.594-1.166 5.085-2.616 2.492-1.45 4.258-1.398 5.4-2.129 1.141-.73.34-1.409 1.128-2.607.788-1.198.865-1.485 2.975-2.777 2.11-1.292 6.118.243 9.002 0 2.884-.243 3.272-1.967 4.59-2.344 1.316-.376.62-.427 3.512-.922 2.892-.495 4.35-1.04 5.98 0zm183.068-33.473c.121.377.1.938-.006 1.6-.104.982-.403 1.858-.834 3.31-.811 2.735-1.409 2.907-3.013 5.288-1.605 2.381-2.643 3.747-3.173 4.414-.53.667-1.236.387-1.566 1.55-.33 1.164-.282 1.377 0 2.43.282 1.052.524 1.027 1.194 2.03l.002.002v.001c.67 1.001 1.28 1.525 1.613 1.966.333.442.3.207.406 1.541.104 1.335-.061 1.049-.21 2.693-.15 1.644.103 2.793-.333 3.287-.436.494-1.143 1.699-2.393-.199-1.251-1.897.18-3.234-.909-4.81-1.088-1.576-2.97-.883-4.148-2.512-1.178-1.63.23-2.688-.447-3.844-.678-1.155-1.377-1.244-2.895-1.856-1.519-.613-2.103-.937-3.51-.729-1.408.208-1.22.553-1.865 1.595-.645 1.043-.709 1.499-.605 2.397.104.899-.097 1.057.605 1.774.703.717.386.186 2.216 1.105 1.83.918 2.914 1.19 3.654 1.693.74.504.825.213 1.07 1.368.246 1.155-.165 2.647-.26 3.307-.097.659-.438.479-.528 1.287-.09.809-.04.341.202 1.639.242 1.298.283 1.884.586 2.588.304.704.362-.007 1.33 1.85.967 1.857 1.264.522 1.335 3.262.07 2.74-.526 3.467-1.335 5.53-.81 2.063-1.107 2.329-2.4 3.992-1.293 1.664-1.809 2.179-3.146 3.145-1.338.966-1.85.71-3.329 1.533-1.48.822-2.045 1.288-2.715 1.826-.67.538-.545.723-1.063.841-.517.118-.79-.033-1.31-.3-.52-.269-.454-.024-1.034-.541-.58-.518-.063-1.174-.887-1.174-.824 0-1.588.685-1.997 1.174-.41.488 0-.068 0 1.208s-.47 1.514 0 2.552c.47 1.037 1.33 1.002 1.997 1.863.667.86.247.97.887 1.86.64.89.964.358 1.653 1.67.69 1.31.53 1.568.691 2.79.161 1.222.147 1.562 0 2.46-.147.897-.414 1.123-.69 1.763-.277.64-.438.345-.62 1.269-.181.924-.095.897-.606 1.861-.51.964-.614 1.118-1.315 1.767-.701.649-.667 1.132-1.378 1.309-.711.176-1.004-.067-1.81-.52-.806-.451-.314-.684-1.238-1.19-.923-.504-1.044-.535-2.249-.715-1.205-.18-1.183.789-2.541 0-1.359-.79-.928-1.031-1.782-2.512-.855-1.48-.935-1.818-1.417-3.032-.481-1.214-.561-1.078-.762-2.46-.2-1.383.088-2.328 0-2.79-.088-.464-.435-.448-.693-.845-.258-.396.234.121-.393-.825-.627-.947.24-1.11-1.386-1.86-1.627-.751-2.996-.604-4.243-.74-1.247-.135-1.712.498-2.55 0-.839-.497.23-.554-.578-1.856-.808-1.302-.546-1.663-1.602-2.487-1.056-.823-.711-1.51-3.25-1.297-2.54.214-4.555 1.122-5.633 3.784-1.079 2.661-1.561 3.784-2.447 5.281-.887 1.497-1.773 2.076-2.36 2.84-.588.762-.614.572-1.035 1.569-.42.996.067 1.38-.302 4.226-.369 2.845-.918 4.496-1.211 5.679-.293 1.183-.407 1.584-.776 2.344-.369.76-.421 1.037-1.066 1.45-.645.41-.85.382-1.809.323-.96-.06-.592-.058-.808-.153-.216-.095-.337-.473-.795-.7-.458-.228-.472-1.532-.665-3.015-.192-1.483-.083-3.234-.51-4.691-.428-1.458-1.076-1.834-1.686-2.796-.61-.962-.882-1.015-1.297-1.904-.415-.888-.267-.94-.455-1.847-.188-.906-.17-1.19-.305-1.82-.134-.629-.15-.756-.502-1.27-.35-.513-.661-1.622-.985-2.57-.323-.948-.09-1.082.178-2.213.268-1.132.422-1.063.454-2.224.032-1.162-.274-1.188-.788-1.73-.515-.543-1.46-.544-2.323-.661-.862-.117-1.53.461-3.53-.474-.52-.244-.828-.48-.996-.7-.12-.14-.204-.28-.271-.422-.44-.542-.33-1.014-.932-1.418-.62-.416-.734-.487-1.342-.673-.608-.186-.553-.132-1.346-.18a11.791 11.791 0 0 0-.707-.024 24.832 24.832 0 0 1-1.004.036c-.484.08-1.872.531-3.696.648a9.456 9.456 0 0 1-1.076.036c-2.518-.04-4.495-.483-5.011-.847-.517-.363-1.022-.283-1.945-.943-.923-.66-.555-.331-2.181-1.175-1.626-.844-1.227-1.14-2.733-1.723-1.506-.582-2.402-.572-3.157-.48a1.082 1.082 0 0 0-.45.144c-.295.194-.343.526-.605.847-.36.442-.179.3-.26 1.104-.08.802-.083.634.577 1.538.66.904.646.786 2.069 1.525 1.423.739 1.537.699 2.962 1.087 1.426.389 1.92.447 2.971.74 1.052.292 1.351.358 2.057.87.706.511.872.26 1.111 1.501.24 1.241.117 1.295-.4 2.308-.518 1.013-.874 1.106-1.676 1.757a3.153 3.153 0 0 1-.29.21c-.46.297-.78.314-1.171.563-.135.088-.28.204-.442.37-.726.744-.346.867-.89 1.719-.519.808-.49 1.16-1.158 1.587-.04.026-.082.052-.127.078-.714.418-1.078.2-2.08.842-.095.061-.195.13-.302.208-1.252.91-1.087 1.25-1.99 2.129-.467.454-.688.695-.967.873-.264.171-.576.282-1.198.463-1.263.365-1.246.612-3.159.211-1.913-.4-2.36-.499-3.577-1.38-1.217-.88-1.145-1.301-1.875-2.286-.73-.985-.291-.314-1.242-1.918-.95-1.604-.922-1.876-1.476-3.32-.554-1.443-.588-2.069-.916-2.916-.33-.847-.32-1.005-.859-1.66-.54-.656-.346-.35-1.473-1.174-1.126-.824-1.409-.563-2.328-1.605-.92-1.042-.609-1.23-.803-2.094-.194-.864.223-1.055-.12-2.02-.345-.965-.417-.822-1.579-1.63-1.161-.809-1.686-.638-2.86-1.46-1.174-.821-1.336-1.058-1.745-2-.408-.94-.133-1.439 0-2.018.134-.579.213-.426 1.181-1.293.09-.08.182-.15.276-.21.788-.51 1.739-.396 2.448-.847a1.647 1.647 0 0 0 .416-.382c.598-.932-1.022-4.008-1.66-4.98a4.091 4.091 0 0 1-.153-.186c-.503-.659-.752-.526-1.788-1-1.036-.473-1.291-.646-2.206-.827-.915-.18-.442-.257-1.982 0s-1.266.611-2.978.828c-1.71.216-1.913.371-3.562 0-1.648-.372-1.996-.527-2.914-1.46-.918-.933-.607-1.015-.957-2.294-.35-1.28-.155-1.586-.4-2.663-.244-1.077-.157-1.614-.492-2.065-.334-.45-.546-.54-1.482-.54-.936 0-2.01.456-1.915 2.297.094 1.842.406 3.162.28 3.682-.127.52-.665.828-1.354.731-.689-.096-.803.12-1.197-1.09-.395-1.21.133-1.537 0-2.581-.134-1.044-.235-1.026-.596-2.07-.361-1.043-.198-1.084-.837-2.07-.638-.985-.853-.981-1.705-1.857-.853-.875-.497-.783-1.778-1.721-1.281-.939-1.763-1.455-2.89-1.697-1.126-.241-1.888.08-2.6.52-.712.439-.384.49-.534 1.414-.15.924-.203 1.2 0 1.87.203.67.453.451.95 1.258.497.808.635.832.842 1.654.207.822-.08.664 0 1.686.08 1.022.29 1.083.29 2.04 0 .956.044 1.239-.29 1.913-.334.674-.346.439-1.258 1.213-.911.773-1.477 1.31-1.932 1.495-.455.183-.585.233-1.19-.236s-.521-.323-.738-1.26c-.218-.936 0-.302 0-1.923v-3.242c0-1.563.249-1.892 0-3.126-.25-1.235-.604-1.387-1.118-2.41-.514-1.025-.606-1.172-1.111-2.031-.505-.86-.366-1.151-1.082-1.701a3.53 3.53 0 0 0-2.078-.729c-.547 0-1.488.256-2.023.729-.535.472-.658.65-1.25 1.386-.593.736-.509.755-1.377 1.877-.868 1.123-1.911 1.88-3.668 2.665-1.756.786-1.792.092-3.286 1.16-1.494 1.069-1.675 1.717-2.314 2.846-.64 1.13.113 1.9-1.789 2.928-1.902 1.03-3.001.62-4.093.761-1.091.141-1.798-.046-2.984-.402-1.186-.357-1.628-.225-2.405-.711-.778-.487-.737-.545-1.3-1.202-.564-.658-.018-.438-.602-1.769-.585-1.33-.582-1.333-.779-2.744-.196-1.41-.241-1.54 0-2.843.242-1.304-.207-1.92.346-2.566.553-.646.542-.618 2.63-.914 2.089-.296 2.48-.359 4.537-.472 2.057-.114 3.054.174 4.017-.251.964-.425.633-.713.633-2.205s.066-1.337-.633-2.233c-.699-.897-1.828.014-2.607-1.336-.78-1.35.373-2.93.373-3.11 0-.18.69-.715 2.867-1.148 2.178-.433 3.15 0 3.936 0 .787 0 .904.252 1.99-.86 1.086-1.111.179-1.372.619-2.389.44-1.017-.189-1.27.844-2.04 1.033-.771 2.353-.409 3.236-.575.882-.167 2.502-.537 2.77-.537.268 0 2.179-1.296 3.25-1.93 1.072-.635 1.031-.997 1.935-1.278.904-.282 1.181.248 2.175.633.993.386-.281.244 1.524.644 1.806.401 3.309.222 4.226 0 .916-.222.287-.918 1.051-1.277.765-.36 1.758.376 3.362-1.065 1.603-1.441 2.333-1.99 3.011-2.98.678-.99.707-1.153.837-2.227.13-1.075.323-1.134.323-2.12 0-.985-.198-1.044-.634-1.97-.436-.927-1.222-.68-1.81-1.128-.59-.45-.77-.296-1.368-1.298-.599-1 .395-4.144.585-4.894.19-.75.605-1.782.362-2.557-.243-.775-.63-1.097-.947-1.492-.318-.395-1.041-1.348-1.622-.72-.58.629-.718 1.455-.718 1.633 0 .179-.162 1.1-.497 1.66-.335.56-1.685.852-2.226 1.71-.54.857-.525 1.373-.525 1.924 0 .551 1.095 3.01 1.328 4.379.232 1.369.225.97.225 2.754 0 1.783.277 2.744-.225 3.568-.503.824-1.402.881-2.595 1.06-1.193.18-3.237-.654-4.444-1.95-1.207-1.295-.96-2.103-2.193-2.678-1.232-.576-1.866.201-2.768.201-.902 0-1.548.44-2.583-.201-1.035-.642-1.377-1.701-1.377-1.972 0-.27-.748-2.672-.748-4.08 0-1.409.445-1.543 1.55-2.863s1.836-1.316 2.982-2.12c1.145-.805.93-.647 1.804-1.749.875-1.102.924-1.658 1.14-2.41.217-.752 1.74-2.48 2.193-2.703.452-.223 2.082-.667 3.046-1.427.963-.76.71-1.03 1.932-2.338 1.221-1.306 1.256-.908 2.6-1.943 1.345-1.036 2.201-1.708 2.487-1.738.285-.03 2.093-1.568 2.601-1.568s4.989-.53 4.989-.53 7.237.777 8.894.818c1.656.042 2.39.25 3.267.398.877.149 1.422.142 2.383 1.192.96 1.05.149 2.962-1.082 3.371-1.23.41-1.301-.14-2.354-.223-1.053-.083-1.53-.729-1.674 1.72-.144 2.45.122 3.928.472 4.97.35 1.043-.193 1.37 1.816 1.855 2.01.484 4.362.517 6.153-2.198 1.792-2.715 2.806-4.687 3.678-5.405.872-.719.923-.112 1.911-1.615.988-1.504.953-2.15 1.268-3.226.316-1.075.776-2.239 1.938-3.403 1.163-1.165 3.175-.566 5.273-1.155 2.099-.59 2.245.103 5.724 0 3.479-.104 4.064-.127 6.018-.646 1.954-.518 1.394-1.732 2.07-2.644.675-.912-.423-1.229.76-2.6 1.183-1.372 1.672-1.074 3.002-1.466 1.33-.392 1.27-.01 3.461.152 2.191.163 1.213.687 5.227-.785s4.292-1.391 6.438-3.492c2.146-2.1 1.474-3.617 2.268-5.006.793-1.388.393-1.158 2.103-2.645 1.71-1.487 2.03-1.56 4.036-2.693 2.007-1.132 3.19-.873 4.333-2.029 1.143-1.155.372-1.624.597-2.953.224-1.329-.976-1.645.352-2.664 1.328-1.02 3.01-1.408 4.253-1.662 1.243-.253.219-.304 3.817-.562 3.597-.257 5.07.456 6.288.41 1.218-.045 2.48.831 2.688 1.192.208.362 1.355 2.495 2.131 3.72.776 1.224 1.373 2.813 2.575 3.065 1.202.251 3.066.611 4.143.306 1.078-.306.683-.881 3.227-2.14 2.544-1.257 1.818-.855 4.02-1.444 2.202-.59 3.07-.196 5.087.212 2.019.409 1.85 1.262 3.29 1.964 1.441.702 1.567 1.065 3.618 1.408 2.05.343 2.229-.284 3.898-.63 1.67-.345.544-.696 2.884-2.35 2.34-1.654 1.51-1.65 3.04-2.372 1.53-.724 2.698-.886 5.278-.719 2.58.167 2.844.942 4.561 1.52 1.718.579 1.264 1.196 3.667 1.571 2.403.375 3.545-.343 5.183-.825 1.638-.482 1.682-1.257 2.906-1.547 1.225-.29 1.988-.079 2.391.51.404.588.468 1.98 1.224 2.703.757.723.805 1.287 3.858 1.287 3.054 0 4.548-.743 5.91-1.057 1.36-.315 1.996-1.463 2.165-1.675.168-.213.655-1.258.447-2.1-.208-.84-.97-1.407-1.558-2.447-.589-1.04-1.602-2.075-.602-2.846 1-.77 1.265-1.024 2.534-1.382 1.27-.357 1.938-.438 4.407-.63 2.469-.194 3.8-.137 5.582 0 1.782.136 3.624.944 5.388 1.801 1.764.857 1.79.93 2.263 1.917.473.988-.017.737.97 2.18.988 1.444 1.602 2.053 2.462 2.837.86.784.467.327 2.05 1.274 1.582.947 2.283 1.164 3.215 1.877.933.713 2.044 1.77 2.482 2.478.439.71.107 1.175 0 1.535-.106.36-.278.46-.674.744-.396.286-.86.504-1.608.538-.747.034-2.338-.343-3.114-.322-.776.021-1.131.158-1.447.446-.315.288-.497.65-.497 1.33 0 .679.475 2.02.497 3 .022.982.29 1.425-.377 2.315-.666.89-2.892 2.36-4.116 3.69-1.225 1.331-.656 1.54-3.153 4.211-2.498 2.671-3.904 1.882-5.575 5.125-1.672 3.242-1.046 4.942-.715 7.077.331 2.135 1.936 1.748 2.448 4.096s.071 2.77-.5 4.844c-.57 2.072-1.318.244-1.948 4.05-.63 3.805.143 7.19 0 7.732-.143.543-.847.825-1.997-.15-1.151-.973-.92-1.046-1.356-2.689-.436-1.642.493-3-.28-4.894-.774-1.894-2.016-2.145-3.144-3.493-1.128-1.348-1.547-1.205-2.084-2.754-.538-1.55.122-1.907.946-4.626.824-2.72 2.063-4.89 2.568-6.06.505-1.172.512-.716.721-2.389.21-1.673.139-2.679 0-3.373-.138-.694.067-1.389-.932-1.295-.998.094-.289 1.103-2.357 1.604-2.068.501-2.089-.16-3.48.245-1.39.405-2.47-.308-3.181 2.819-.712 3.127-.206 4.22-.276 4.678-.07.458.214 1.224-.82 1.377-1.032.153-1.664.083-2.184 0-.52-.084-1.785-.326-2.938-.326-1.153 0-6.935 2.959-8.658 4.7-1.723 1.74-2.319 5.59-2.656 6.734-.338 1.144-.475 1.02-1.492 2.16-1.017 1.138-1.976 1.593-2.363 2.157-.388.565-.997 2.298 1.328 2.736 2.325.439 3.83-1.98 6.464-1.656 2.635.324 2.46 1.267 4.088 2.954 1.628 1.686.683 2.762.756 4.537.074 1.775-.548 2.512-.42 3.555.127 1.044.17.653 1.102 2.015.933 1.362 1.644-.547 2.187 2.66.114.67.189 1.231.228 1.724zm-3.04 32.068c0-1.815.917-2.815 2.514-5.252 1.598-2.437 2.414-2.113 3.468-4.445 1.054-2.333.398-4.565 1.109-5.685.71-1.12 1.756-1.693 2.5 0 .745 1.693 1.787 4.487 1.101 7.617-.685 3.13-1.658 2.072-3.601 4.899-.478.695-3.462 2.818-4.577 3.466-1.477.859-2.514 1.214-2.514-.6z" fill="#FFFFFF" opacity=".15" fill-rule="evenodd" data-color="1"/>
    </g>
</svg>
